<?xml version="1.0" encoding="UTF-8" standalone="no"?>
<svg
   xmlns:dc="http://purl.org/dc/elements/1.1/"
   xmlns:cc="http://creativecommons.org/ns#"
   xmlns:rdf="http://www.w3.org/1999/02/22-rdf-syntax-ns#"
   xmlns:svg="http://www.w3.org/2000/svg"
   xmlns="http://www.w3.org/2000/svg"
   xmlns:xlink="http://www.w3.org/1999/xlink"
   xmlns:sodipodi="http://sodipodi.sourceforge.net/DTD/sodipodi-0.dtd"
   xmlns:inkscape="http://www.inkscape.org/namespaces/inkscape"
   height="32"
   width="32"
   version="1.1"
   id="svg56"
   sodipodi:docname="usewizards.svg"
   inkscape:version="0.92.5 (2060ec1f9f, 2020-04-08)">
  <metadata
     id="metadata62">
    <rdf:RDF>
      <cc:Work
         rdf:about="">
        <dc:format>image/svg+xml</dc:format>
        <dc:type
           rdf:resource="http://purl.org/dc/dcmitype/StillImage" />
      </cc:Work>
    </rdf:RDF>
  </metadata>
  <defs
     id="defs60">
    <linearGradient
       inkscape:collect="always"
       id="linearGradient881">
      <stop
         style="stop-color:#000000;stop-opacity:1;"
         offset="0"
         id="stop877" />
      <stop
         style="stop-color:#000000;stop-opacity:0;"
         offset="1"
         id="stop879" />
    </linearGradient>
    <linearGradient
       inkscape:collect="always"
       id="linearGradient873">
      <stop
         style="stop-color:#ffffff;stop-opacity:1;"
         offset="0"
         id="stop869" />
      <stop
         style="stop-color:#ffffff;stop-opacity:0;"
         offset="1"
         id="stop871" />
    </linearGradient>
    <radialGradient
       inkscape:collect="always"
       xlink:href="#linearGradient873"
       id="radialGradient875"
       cx="16.243"
       cy="28.98"
       fx="16.243"
       fy="28.98"
       r="16"
       gradientTransform="matrix(1,0,0,0.21875,0,22.640625)"
       gradientUnits="userSpaceOnUse" />
    <radialGradient
       inkscape:collect="always"
       xlink:href="#linearGradient881"
       id="radialGradient887"
       cx="16.243"
       cy="28.98"
       fx="16.243"
       fy="28.98"
       r="16.5"
       gradientTransform="matrix(1,0,0,0.24242424,0,21.954545)"
       gradientUnits="userSpaceOnUse" />
  </defs>
  <sodipodi:namedview
     pagecolor="#ffffff"
     bordercolor="#666666"
     borderopacity="1"
     objecttolerance="10"
     gridtolerance="10"
     guidetolerance="10"
     inkscape:pageopacity="0"
     inkscape:pageshadow="2"
     inkscape:window-width="2560"
     inkscape:window-height="1387"
     id="namedview58"
     showgrid="false"
     inkscape:zoom="7.375"
     inkscape:cx="16"
     inkscape:cy="16"
     inkscape:window-x="-8"
     inkscape:window-y="-8"
     inkscape:window-maximized="1"
     inkscape:current-layer="svg56" />
  <radialGradient
     id="a"
     cx="6.703"
     cy="73.616"
     gradientTransform="matrix(2.21346 0 0 .4842 1.407 -6.665)"
     gradientUnits="userSpaceOnUse"
     r="7.228">
    <stop
       offset="0"
       id="stop2" />
    <stop
       offset="1"
       stop-opacity="0"
       id="stop4" />
  </radialGradient>
  <radialGradient
     id="b"
     cx="32.5"
     cy="16.563"
     gradientTransform="matrix(.136 .32887 -.25782 .113 11.15 .462)"
     gradientUnits="userSpaceOnUse"
     r="14.438"
     xlink:href="#f" />
  <linearGradient
     id="c"
     gradientTransform="matrix(.26726 0 0 1.15755 9.316 -10.704)"
     gradientUnits="userSpaceOnUse"
     x1="-32.957"
     x2="-25.474"
     y1="27.389"
     y2="27.389">
    <stop
       offset="0"
       stop-color="#2e3436"
       id="stop8" />
    <stop
       offset=".644"
       stop-color="#888a85"
       id="stop10" />
    <stop
       offset="1"
       stop-color="#555753"
       id="stop12" />
  </linearGradient>
  <linearGradient
     id="d"
     gradientTransform="matrix(.77602 .23906 -.31605 .56748 -20.168 4.55)"
     gradientUnits="userSpaceOnUse"
     x1="27.528"
     x2="30.42"
     y1="4.167"
     y2="2.949">
    <stop
       offset="0"
       stop-color="#eeeeec"
       id="stop15" />
    <stop
       offset=".789"
       stop-color="#fff"
       id="stop17" />
    <stop
       offset="1"
       stop-color="#eeeeec"
       id="stop19" />
  </linearGradient>
  <linearGradient
     id="e"
     gradientUnits="userSpaceOnUse"
     x1="19.344619"
     x2="1.673996"
     y1="7.661318"
     y2="15.315966">
    <stop
       offset="0"
       stop-color="#fff"
       id="stop22" />
    <stop
       offset="1"
       stop-color="#fff"
       stop-opacity="0"
       id="stop24" />
  </linearGradient>
  <linearGradient
     id="f">
    <stop
       offset="0"
       stop-color="#fff3cb"
       id="stop27" />
    <stop
       offset=".262"
       stop-color="#fdde76"
       id="stop29" />
    <stop
       offset=".661"
       stop-color="#f9c440"
       id="stop31" />
    <stop
       offset="1"
       stop-color="#e48b20"
       id="stop33" />
  </linearGradient>
  <filter
     id="g"
     color-interpolation-filters="sRGB"
     height="1.324"
     width="1.387"
     x="-.193"
     y="-.162">
    <feGaussianBlur
       stdDeviation=".678"
       id="feGaussianBlur36" />
  </filter>
  <linearGradient
     id="h"
     gradientUnits="userSpaceOnUse"
     x1=".996664"
     x2="19.759284"
     xlink:href="#f"
     y1="17.454627"
     y2="3.457329" />
  <path
     d="m-.163 13.632c17.352 1.1 6.417-8.917 19.826-9.236l3.37 7.08c-6.12-2.853-10.306 11.805-23.276 3.19z"
     fill="url(#e)"
     fill-rule="evenodd"
     opacity=".444"
     id="path40" />
  <path
     d="m32.243 28.98c0 1.932-7.164 3.5-16 3.5-8.837 0-16-1.568-16-3.5 0-1.934 7.163-3.5 16-3.5 8.836 0 16 1.566 16 3.5z"
     fill="url(#a)"
     opacity=".2"
     id="path42"
     style="fill:url(#radialGradient875);fill-opacity:1;stroke:url(#radialGradient887)" />
  <path
     d="m13.42 3.166-.134 3.304-2.128 1.115-.667-.375-.022-1.97-1.397 1.29-1.88-.59.792 1.725-1.14 1.607 1.884-.22 1.178 1.582.372-1.862.984-.334 2.084.774.575 3.385 2.053-2.593 3.396.5-1.834-2.756 1.523-3.073-3.183.89zm-7.362 5.824-1.084 1-1.458-.46.615 1.34-.886 1.246 1.464-.17.91 1.227.29-1.445 1.45-.487-1.283-.72zm4.95 1.19-1.578 1.45-2.13-.664.897 1.95-1.286 1.815 2.13-.247 1.33 1.786.42-2.104 2.113-.71-1.872-1.053zm-8.294 2.113-.396 1.492-1.544.417 1.294.836-.08 1.6 1.195-.975 1.497.573-.558-1.44 1.005-1.245-1.54.087z"
     fill="url(#h)"
     id="path44" />
  <path
     d="m13.263 17.77c-2.056.9-4.6-.495-5.686-3.117-1.084-2.622-.297-5.478 1.76-6.38 2.055-.9 4.6.495 5.685 3.118 1.084 2.623.297 5.48-1.76 6.38z"
     fill="url(#b)"
     filter="url(#g)"
     opacity=".483"
     transform="matrix(1.33333 0 0 1.33333 .122 -8.975)"
     id="path46" />
  <g
     transform="matrix(1.41113 -.81472 .6894 1.1941 4.267 -6.127)"
     id="g54">
    <path
       d="m.5 18v12.438c0 .58.297 1.062.667 1.062h.666c.37 0 .667-.48.667-1.063v-12.437z"
       fill="url(#c)"
       fill-rule="evenodd"
       id="path48" />
    <rect
       fill="none"
       height="21"
       opacity=".3"
       rx=".749"
       ry=".929"
       stroke="#000"
       stroke-width=".667"
       width="2"
       x=".5"
       y="10.5"
       id="rect50" />
    <path
       d="m1.167 10.5c-.37 0-.667.48-.667 1.063v6.437h2v-6.438c0-.58-.297-1.062-.667-1.062z"
       fill="url(#d)"
       fill-rule="evenodd"
       opacity=".9"
       id="path52" />
  </g>
</svg>
